<?xml version="1.0" encoding="utf-8"?>
<!-- Generator: Adobe Illustrator 27.9.0, SVG Export Plug-In . SVG Version: 6.00 Build 0)  -->
<svg version="1.1" id="Layer_1" opacity="0.8" xmlns="http://www.w3.org/2000/svg" xmlns:xlink="http://www.w3.org/1999/xlink"
	 x="0px" y="0px" viewBox="0 0 100 100" style="enable-background:new 0 0 100 100;" xml:space="preserve">
<style type="text/css">
	.st0{opacity:0.6;fill:none;stroke:#F5FAF4;stroke-miterlimit:10;}
	.st1{fill:none;stroke:#FAFDFB;stroke-width:5;stroke-miterlimit:10;}
	.st2{fill:#FAFDFB;}
</style>
<ellipse class="st0" cx="50" cy="13.59" rx="12.2" ry="8.38"/>
<ellipse class="st0" cx="50" cy="17.6" rx="23.14" ry="14.72"/>
<ellipse class="st0" cx="50" cy="23.12" rx="32.36" ry="20.07"/>
<path class="st0" d="M87.87,22.95c0.83,2.18,1.27,4.46,1.27,6.81c0,14.85-17.52,26.88-39.13,26.88S10.87,44.61,10.87,29.76
	c0-2.77,0.61-5.44,1.74-7.95"/>
<path class="st0" d="M95.47,41.26c0,20.42-24.21,32.62-45.47,32.62c-21.24,0-44.72-11.74-45.47-32.62"/>
<path class="st0" d="M94.97,58.78c-3.27,16.75-22.22,29.6-45.11,29.6c-19.98,0-36.95-9.79-43.12-23.42"/>
<circle class="st1" cx="50" cy="49.65" r="46.07"/>
<g>
	<g>
		<path class="st2" d="M54.01,9.14c1.17,19.71,1.23,39.44,0.93,59.17c-0.17,7.48-1.61,13.14-3.74,17.26
			c-2.12,4.12-4.4,5.85-7.3,5.36c-3.49-0.59-6.74-4.37-10.19-11.48c-0.47,3.29-0.91,5.18-1.6,6c-0.69,0.81-1.75,0.67-3.33-0.32
			c-2.49-1.58-5.28-4.46-8.61-8.28c-3.33-3.82-6.98-8.39-8.89-14.88c-2.44-17.34-0.14-26.88,10.4-40.86
			c2.75-2.75,4.3-3.98,7.63-6.02c-7.68,13.64-9.38,30.46-7.7,45.75c0.31,2.39,0.7,3.94,1.04,4.71c0.34,0.77,0.81,1.22,1.41,1.32
			c1.13,0.2,1.34-1.49,0.92-5.28c-0.91-16.27-0.37-32.8,6.7-47.85c3.48-1.83,5.35-2.55,9.25-3.51c-3.52,17.1-3.75,34.55-3.33,51.92
			c0.13,2.62,0.37,4.34,0.67,5.23c0.29,0.89,0.78,1.36,1.45,1.41c1.27,0.09,1.77-2,1.61-6.48c-0.29-17.59-0.14-35.21,2.37-52.66
			C47.71,8.94,49.89,8.83,54.01,9.14z"/>
		<path class="st2" d="M79.81,20.9c6.59,7.65,3.53,18.74,2.06,27.36c1.97,9.32,5.81,21.34-0.79,30.06
			c-3.03,2.75-4.74,3.97-8.41,5.98c1.32-4.79,1.39-7.84,0.7-14.71c-2.89,7.48-4.57,11.14-7.72,17.8c-3.98,1.36-6.1,1.82-10.47,2.23
			c4.85-13.59,9.71-27.08,13.88-40.89C64.95,35.43,60.24,22.4,55.55,9.29c4.25,0.48,6.3,1,10.15,2.49
			c3.27,6.18,5.04,9.56,8.23,16.45c0.01-6.2-0.35-8.96-1.98-13.41C75.38,16.87,76.98,18.11,79.81,20.9z"/>
	</g>
</g>
</svg>
